<?xml version="1.0" encoding="utf-8"?>
<!-- Generator: Adobe Illustrator 24.2.1, SVG Export Plug-In . SVG Version: 6.00 Build 0)  -->
<svg version="1.1" id="Layer_1" xmlns="http://www.w3.org/2000/svg" xmlns:xlink="http://www.w3.org/1999/xlink" x="0px" y="0px"
	 viewBox="0 0 250 37" style="enable-background:new 0 0 250 37;" xml:space="preserve">
<style type="text/css">
	.st0{fill:none;stroke:#FFFFFF;stroke-miterlimit:10;}
	.st1{fill:#FFFFFF;}
</style>
<rect x="1" y="1.3" class="st0" width="248" height="35"/>
<g>
	<path class="st1" d="M51.1,10.2l-0.2,1.6c-0.5-0.1-0.9-0.1-1.3-0.2c-0.4,0-0.9-0.1-1.3-0.1c-0.5,0-1.1,0-1.6,0.1s-1.1,0.2-1.7,0.3
		l1,15.2l-4.6-0.6l1.1-14.4h-0.7c-0.7,0-1.4,0-2-0.1s-1-0.2-1.4-0.4c-0.5-0.3-0.9-0.6-1.1-1.1c-0.2-0.5-0.4-1-0.4-1.7V8.5l0.7-0.2
		c0,0.8,0.3,1.3,0.9,1.7c0.5,0.4,1.4,0.6,2.4,0.6c0.9,0,2.2-0.1,4-0.4s3.1-0.4,4-0.4c0.5,0,0.9,0,1.3,0.1S50.8,10,51.1,10.2z
		 M44.5,19.7c0-0.3-0.1-0.5-0.3-0.7s-0.4-0.3-0.7-0.3S43,18.8,42.8,19s-0.3,0.4-0.3,0.7c0,0.3,0.1,0.5,0.3,0.7s0.4,0.3,0.7,0.3
		s0.5-0.1,0.7-0.3S44.5,19.9,44.5,19.7z M44.2,22.9c0-0.2-0.1-0.4-0.2-0.5s-0.3-0.2-0.5-0.2s-0.4,0.1-0.6,0.2s-0.2,0.3-0.2,0.5
		s0.1,0.4,0.2,0.5c0.1,0.1,0.3,0.2,0.6,0.2s0.4-0.1,0.5-0.2C44.2,23.3,44.2,23.1,44.2,22.9z M44.3,16.6c0-0.2-0.1-0.4-0.2-0.6
		s-0.3-0.2-0.5-0.2S43.1,15.9,43,16s-0.2,0.3-0.2,0.6c0,0.3,0.1,0.4,0.2,0.6s0.3,0.2,0.6,0.2s0.4-0.1,0.5-0.2S44.3,16.8,44.3,16.6z"
		/>
	<path class="st1" d="M66.5,26.7l-1.8,0.4l-1.2-3.7l-7.3-0.1l-1.8,5l-4-2.7l7.7-15.8L61,9.6L66.5,26.7z M55.3,20.4L54.9,20
		c-0.5,0.8-0.9,1.7-1.3,2.6s-0.7,1.9-1,2.9l0.9,0.4c0.1-0.9,0.4-1.9,0.6-2.8C54.5,22.2,54.9,21.3,55.3,20.4z M62.9,21.5l-0.6-1.8
		l-5.5,1.4l-0.3,0.8L62.9,21.5z M61.9,18.4L60,11.5l-2.6,7.9L61.9,18.4z"/>
	<path class="st1" d="M91.1,10.2L89.2,13l-1.6-0.6l-4.1,14.2L82.7,27l-4.3-10.6l-5.3,11.2l-0.4-2L71.3,26l-0.2-0.9l1.5-0.5L72.2,23
		l-1.4,0.4l-0.2-1l1.5-0.4l-0.4-1.9l-1.4,0.6l-0.4-1l1.6-0.6l-0.4-1.8l-1.8,0.4L69,16.8l1.8-0.5l-0.4-2L69,14.8L68.9,14l1.4-0.5
		l-0.4-2.3l-1.3,0.4l-0.4-1.1l3.3-1.1l3.6,10.8l5.2-11.1l3.9,9.6L87.3,9L91.1,10.2z M83.5,20.6L79.9,12l-0.7,1.3l3.7,9.2L83.5,20.6z
		"/>
	<path class="st1" d="M105.7,26.7l-1.8,0.4l-1.2-3.7l-7.3-0.1l-1.8,5l-4-2.7l7.7-15.8l2.9-0.2L105.7,26.7z M94.5,20.4L94.1,20
		c-0.5,0.8-0.9,1.7-1.3,2.6s-0.7,1.9-1,2.9l0.9,0.4c0.1-0.9,0.4-1.9,0.6-2.8C93.7,22.2,94.1,21.3,94.5,20.4z M102.1,21.5l-0.6-1.8
		L96,21.1l-0.3,0.8L102.1,21.5z M101.1,18.4l-1.9-6.9l-2.6,7.9L101.1,18.4z"/>
	<path class="st1" d="M120.5,19.9c0,2.4-0.5,4.2-1.6,5.5c-1.1,1.2-2.8,1.8-5,1.8c-1.1,0-2-0.1-2.8-0.4s-1.4-0.7-1.9-1.2
		s-0.8-1.2-1-2s-0.3-1.7-0.3-2.8c0-0.9,0.1-2.2,0.3-4s0.3-3.1,0.3-4c0-0.6,0-1.1-0.1-1.5s-0.2-0.8-0.4-1.1l0.9-0.4
		c0.3,0.6,0.6,1.3,0.8,2.1s0.3,1.7,0.4,2.6c0,0.3,0,0.9,0,1.7c0,0.8,0,1.9,0,3.3c0,0.8,0,1.5,0.1,2.1c0,0.6,0.1,1,0.2,1.4
		c0.2,0.7,0.5,1.2,0.9,1.5s0.9,0.5,1.5,0.5c0.7,0,1.3-0.1,1.8-0.4c0.5-0.2,0.9-0.6,1.1-1.1c0.2-0.3,0.3-0.8,0.4-1.3s0.1-1.2,0.1-1.9
		c0-0.1,0-0.3,0-0.5s0-0.4,0-0.6c0-0.3,0-0.5,0-0.7s0-0.3,0-0.4l1.6-0.1l-0.1-1.2l-1.5,0.1l-0.1-1.1l1.5-0.1v-1.2H116l-0.1-1.2
		l1.5,0.1v-1.1L116,12l-0.1-1.2l4.3,0.4c0.1,2.8,0.2,4.9,0.2,6.4C120.4,19,120.5,19.8,120.5,19.9z M114,18.6c0,0.4-0.1,0.7-0.4,0.9
		s-0.5,0.4-0.9,0.4s-0.7-0.1-0.9-0.4c-0.2-0.3-0.4-0.6-0.4-0.9s0.1-0.6,0.4-0.9s0.5-0.4,0.9-0.4c0.3,0,0.6,0.1,0.9,0.4
		S114,18.3,114,18.6z"/>
	<path class="st1" d="M141.8,10.2l-0.2,1.6c-0.5-0.1-0.9-0.1-1.3-0.2c-0.4,0-0.9-0.1-1.3-0.1c-0.5,0-1.1,0-1.6,0.1s-1.1,0.2-1.7,0.3
		l1,15.2l-4.6-0.6l1.1-14.4h-0.7c-0.7,0-1.4,0-2-0.1s-1-0.2-1.4-0.4c-0.5-0.3-0.9-0.6-1.1-1.1c-0.2-0.5-0.4-1-0.4-1.7V8.5l0.7-0.2
		c0,0.8,0.3,1.3,0.9,1.7c0.5,0.4,1.4,0.6,2.4,0.6c0.9,0,2.2-0.1,4-0.4c1.8-0.3,3.1-0.4,4-0.4c0.5,0,0.9,0,1.3,0.1
		S141.5,10,141.8,10.2z M135.2,19.7c0-0.3-0.1-0.5-0.3-0.7s-0.4-0.3-0.7-0.3s-0.5,0.1-0.7,0.3c-0.2,0.2-0.3,0.4-0.3,0.7
		c0,0.3,0.1,0.5,0.3,0.7s0.4,0.3,0.7,0.3s0.5-0.1,0.7-0.3C135.1,20.1,135.2,19.9,135.2,19.7z M135,22.9c0-0.2-0.1-0.4-0.2-0.5
		c-0.1-0.1-0.3-0.2-0.5-0.2s-0.4,0.1-0.6,0.2c-0.1,0.1-0.2,0.3-0.2,0.5s0.1,0.4,0.2,0.5c0.1,0.1,0.3,0.2,0.6,0.2s0.4-0.1,0.5-0.2
		C134.9,23.3,135,23.1,135,22.9z M135,16.6c0-0.2-0.1-0.4-0.2-0.6c-0.1-0.1-0.3-0.2-0.5-0.2s-0.4,0.1-0.6,0.2
		c-0.2,0.1-0.2,0.3-0.2,0.6c0,0.3,0.1,0.4,0.2,0.6s0.3,0.2,0.6,0.2s0.4-0.1,0.5-0.2C135,17,135,16.8,135,16.6z"/>
	<path class="st1" d="M156.1,25.3c-0.3,0.7-0.7,1.1-1.1,1.5c-0.4,0.3-0.9,0.5-1.4,0.5c-0.6,0-1.1-0.2-1.7-0.6
		c-0.6-0.4-1.2-1-1.8-1.7l-3.5-4.5l-1.3,0.3l-0.3,6.5l-1.9,0.3l-0.7-18.2h1l0.1,1.3l1.9,0.2l0.2-1.3l1,0.1l-0.1,1.4l1.4,0.3l0.6-1.3
		l0.9,0.4l-0.6,1.2c0.3,0.1,0.6,0.3,0.9,0.5c0.3,0.2,0.5,0.4,0.6,0.7l1-0.7L152,13l-1.3,0.9c0.1,0.3,0.2,0.5,0.2,0.9s0,0.7,0,1.1
		l1.5,0.5l-0.4,0.9l-1.3-0.5c-0.1,0.3-0.2,0.5-0.3,0.8s-0.3,0.5-0.5,0.8l1,0.9l-0.6,0.8l-1.1-0.8l-0.5,0.3l3.3,5.2
		c0.1,0.2,0.3,0.3,0.4,0.5c0.2,0.2,0.3,0.3,0.5,0.5s0.4,0.3,0.7,0.4c0.2,0.1,0.4,0.1,0.6,0.1c0.3,0,0.5-0.1,0.8-0.2s0.5-0.4,0.7-0.7
		L156.1,25.3z M148.9,17.8l-1.2-5.5c-0.2-0.1-0.4-0.2-0.7-0.2c-0.3-0.1-0.5-0.1-0.9-0.2l-0.5,7.6c0.7-0.2,1.3-0.4,1.9-0.7
		C148,18.6,148.5,18.2,148.9,17.8z"/>
	<path class="st1" d="M171.3,26.7l-1.8,0.4l-1.2-3.7l-7.3-0.1l-1.8,5l-4-2.7l7.7-15.8l2.9-0.2L171.3,26.7z M160,20.4l-0.4-0.5
		c-0.5,0.8-0.9,1.7-1.3,2.6s-0.7,1.9-1,2.9l0.9,0.4c0.1-0.9,0.4-1.9,0.6-2.8C159.2,22.2,159.6,21.3,160,20.4z M167.6,21.5l-0.6-1.8
		l-5.5,1.4l-0.3,0.8L167.6,21.5z M166.6,18.4l-1.9-6.9l-2.6,7.9L166.6,18.4z"/>
	<path class="st1" d="M185.6,11.6c0,0.6-0.1,1.4-0.4,2.2s-0.7,1.9-1.2,3c-0.4,0.8-0.9,1.7-1.3,2.5c-0.5,0.8-0.9,1.6-1.3,2.5
		c-0.5,1-0.9,2-1.3,2.9s-0.7,1.8-1,2.7l-6.7-16.9l4.1-1.8l3.3,13.4c0.1-0.2,0.3-0.7,0.8-1.7c0.5-0.9,1.1-2.3,1.9-4
		c0.6-1.3,1.1-2.5,1.5-3.4c0.3-0.9,0.5-1.6,0.5-2c0-0.2,0-0.4-0.1-0.6s-0.1-0.4-0.2-0.5c-0.1-0.2-0.2-0.3-0.4-0.4
		c-0.2-0.1-0.3-0.1-0.5-0.1c-0.5,0-0.9,0.2-1.3,0.6c-0.3,0.4-0.5,0.8-0.5,1.3c0,0.4,0.1,0.7,0.2,1c0.1,0.2,0.3,0.3,0.6,0.3
		c0.2,0,0.3,0,0.4-0.1c0.1-0.1,0.1-0.2,0.1-0.4s-0.1-0.3-0.2-0.4s-0.3-0.2-0.5-0.2c0.2-0.2,0.3-0.3,0.5-0.3c0.1-0.1,0.3-0.1,0.4-0.1
		c0.3,0,0.4,0.1,0.6,0.3c0.1,0.2,0.2,0.4,0.2,0.8c0,0.2,0,0.4-0.1,0.6s-0.2,0.3-0.4,0.5c-0.2,0.1-0.3,0.2-0.5,0.3s-0.4,0.1-0.7,0.1
		c-0.6,0-1.1-0.2-1.5-0.7s-0.6-1-0.6-1.6c0-0.4,0.1-0.8,0.2-1.1c0.2-0.3,0.4-0.6,0.7-0.9c0.3-0.2,0.6-0.4,1-0.5
		c0.3-0.1,0.7-0.2,1.1-0.2c0.4,0,0.8,0.1,1.1,0.2c0.3,0.2,0.6,0.4,0.9,0.7c0.2,0.3,0.4,0.6,0.5,1C185.5,10.8,185.6,11.2,185.6,11.6z
		 M176.5,17.2v-0.4c0-0.8-0.1-1.6-0.2-2.5c-0.1-0.9-0.3-1.8-0.5-2.7l-1,0.1c0.3,0.8,0.6,1.7,0.8,2.6s0.3,1.8,0.4,2.7L176.5,17.2z"/>
	<path class="st1" d="M198.7,14l-1.6,0.5c-0.1-0.7-0.2-1.3-0.5-1.8s-0.6-0.8-1.1-1.1c-0.3-0.1-0.7-0.2-1.2-0.3
		c-0.6-0.1-1.3-0.2-2.1-0.3l-0.8,6.8l5.2-0.3l-1.3,2.9l-4.2-0.9l-0.9,6.8l3.8,0.1l1.3-2l2.1-0.1l0.1,3.3l-9.9-0.6l0.6-10.7l1.4,0.1
		l0.2-0.9h-1.6l0.1-1.2l1.5,0.1l0.2-1.1h-1.6l0.1-1.2l1.5,0.1l0.2-0.9l-1.7-0.1l0.1-1.9c0.7,0.1,1.4,0.1,2,0.2
		c0.7,0.1,1.4,0.1,2.1,0.1c0.8,0.1,1.5,0.2,2.2,0.4c0.6,0.2,1.2,0.4,1.6,0.7c0.6,0.4,1.1,0.8,1.4,1.4
		C198.3,12.6,198.6,13.3,198.7,14z M195.2,13.3l-0.3,2.7l-2.4-0.6l0.8-1.7L195.2,13.3z"/>
	<path class="st1" d="M213.3,24.4c0,0.6-0.2,1.1-0.6,1.4c-0.4,0.4-1.1,0.7-1.9,0.9c-0.5,0.1-1.2,0.2-2,0.3c-0.9,0.1-1.9,0.1-3.2,0.2
		c-1.1,0-2.1,0.1-2.8,0.1c-0.7,0.1-1.2,0.2-1.6,0.3l0.6-8.7l-1.4-0.1l0.1-1.8l1.5-0.1l0.1-1.9l-1.5-0.1l0.1-1.7l1.5,0.1l0.1-2
		l-1.6-0.2V9.5l5.9,0.4l-2.9,15.4h0.4c0.3,0,0.6,0,1,0s0.8,0.1,1.3,0.1s1,0.1,1.4,0.1s0.7,0,0.9,0c1.1,0,1.9-0.2,2.4-0.5
		s0.8-0.8,0.8-1.4c0-0.2,0-0.4-0.1-0.7s-0.1-0.5-0.2-0.8l0.8-0.4c0.3,0.5,0.5,1,0.6,1.4C213.3,23.6,213.3,24,213.3,24.4z
		 M209.9,20.2c0,0.3-0.1,0.7-0.4,0.9c-0.3,0.3-0.6,0.4-0.9,0.4c-0.4,0-0.7-0.1-0.9-0.4c-0.3-0.3-0.4-0.6-0.4-0.9s0.1-0.6,0.4-0.9
		c0.3-0.3,0.6-0.4,0.9-0.4c0.3,0,0.6,0.1,0.9,0.4C209.7,19.6,209.9,19.8,209.9,20.2z"/>
</g>
</svg>
